<svg width="122" height="30" viewBox="0 0 122 30" fill="none" xmlns="http://www.w3.org/2000/svg">
<g clip-path="url(#clip0_2004_330)">
<path d="M35.5264 21.0685H44.2578V18.4344H38.6297V8.51245H35.5264V21.0685Z" fill="#0F1831"/>
<path d="M49.431 19.3123C48.1862 19.3123 47.5375 18.2235 47.5375 16.5903C47.5375 14.9572 48.1862 13.8508 49.431 13.8508C50.6759 13.8508 51.3421 14.9572 51.3421 16.5903C51.3421 18.2235 50.6759 19.3123 49.431 19.3123ZM49.4486 21.3493C52.3415 21.3493 54.235 19.2947 54.235 16.5903C54.235 13.8859 52.3415 11.8313 49.4486 11.8313C46.5732 11.8313 44.6445 13.8859 44.6445 16.5903C44.6445 19.2947 46.5732 21.3493 49.4486 21.3493Z" fill="#0F1831"/>
<path d="M59.2421 24.1769C60.5746 24.1769 61.7493 23.8784 62.5383 23.1759C63.2572 22.5262 63.7305 21.5427 63.7305 20.1905V12.0774H60.9954V13.0432H60.9603C60.4343 12.2881 59.6278 11.814 58.4356 11.814C56.2089 11.814 54.666 13.6754 54.666 16.3096C54.666 19.0666 56.542 20.5769 58.5583 20.5769C59.6454 20.5769 60.3292 20.1379 60.8551 19.5408H60.9253V20.4364C60.9253 21.5252 60.4168 22.1574 59.207 22.1574C58.2603 22.1574 57.7869 21.7535 57.6291 21.2793H54.8589C55.1394 23.1584 56.77 24.1769 59.2421 24.1769ZM59.2246 18.452C58.1551 18.452 57.4538 17.574 57.4538 16.2218C57.4538 14.852 58.1551 13.974 59.2246 13.974C60.4168 13.974 61.048 14.9925 61.048 16.2042C61.048 17.4686 60.4694 18.452 59.2246 18.452Z" fill="#0F1831"/>
<path d="M69.3549 19.3123C68.11 19.3123 67.4613 18.2235 67.4613 16.5903C67.4613 14.9572 68.11 13.8508 69.3549 13.8508C70.5997 13.8508 71.2659 14.9572 71.2659 16.5903C71.2659 18.2235 70.5997 19.3123 69.3549 19.3123ZM69.3724 21.3493C72.2653 21.3493 74.1591 19.2947 74.1591 16.5903C74.1591 13.8859 72.2653 11.8313 69.3724 11.8313C66.497 11.8313 64.5684 13.8859 64.5684 16.5903C64.5684 19.2947 66.497 21.3493 69.3724 21.3493Z" fill="#0F1831"/>
<path d="M74.9932 21.0685H77.851V12.0773H74.9932V21.0685ZM74.9932 10.8305H77.851V8.51245H74.9932V10.8305Z" fill="#0F1831"/>
<path d="M79.0908 24.0364H81.9487V20.1379H81.9838C82.5448 20.893 83.3689 21.3496 84.526 21.3496C86.8754 21.3496 88.4359 19.4881 88.4359 16.573C88.4359 13.8686 86.9806 11.814 84.5962 11.814C83.3689 11.814 82.4922 12.3584 81.8786 13.1662H81.826V12.0774H79.0908V24.0364ZM83.7896 19.1369C82.5623 19.1369 81.861 18.1359 81.861 16.6784C81.861 15.2208 82.4922 14.1145 83.737 14.1145C84.9644 14.1145 85.5429 15.133 85.5429 16.6784C85.5429 18.2062 84.8767 19.1369 83.7896 19.1369Z" fill="#0F1831"/>
<path d="M93.0893 21.3496C95.4388 21.3496 97.1745 20.331 97.1745 18.3642C97.1745 16.0637 95.316 15.6598 93.7381 15.3964C92.5984 15.1857 91.5815 15.0979 91.5815 14.4657C91.5815 13.9037 92.125 13.6403 92.8263 13.6403C93.6153 13.6403 94.1588 13.8862 94.264 14.694H96.894C96.7537 12.9203 95.3861 11.814 92.8439 11.814C90.7224 11.814 88.9691 12.7974 88.9691 14.694C88.9691 16.8013 90.6347 17.2227 92.1952 17.4862C93.3874 17.6969 94.4744 17.7847 94.4744 18.5925C94.4744 19.172 93.9309 19.4881 93.0718 19.4881C92.125 19.4881 91.5289 19.0491 91.4237 18.1535H88.7236C88.8113 20.1379 90.4594 21.3496 93.0893 21.3496Z" fill="#0F1831"/>
<path d="M101.056 21.3318C102.301 21.3318 103.09 20.8401 103.739 19.962H103.791V21.0684H106.527V12.0771H103.669V17.0996C103.669 18.1708 103.073 18.9084 102.091 18.9084C101.179 18.9084 100.741 18.364 100.741 17.3806V12.0771H97.9004V17.9776C97.9004 19.9796 98.9874 21.3318 101.056 21.3318Z" fill="#0F1831"/>
<path d="M107.77 21.0686H110.627V16.0286C110.627 14.9574 111.153 14.2023 112.048 14.2023C112.907 14.2023 113.31 14.7642 113.31 15.7301V21.0686H116.168V16.0286C116.168 14.9574 116.676 14.2023 117.588 14.2023C118.447 14.2023 118.85 14.7642 118.85 15.7301V21.0686H121.708V15.2208C121.708 13.2013 120.691 11.814 118.657 11.814C117.5 11.814 116.536 12.3057 115.835 13.3945H115.8C115.344 12.4286 114.45 11.814 113.275 11.814C111.977 11.814 111.118 12.4286 110.557 13.3593H110.505V12.0774H107.77V21.0686Z" fill="#0F1831"/>
<path fill-rule="evenodd" clip-rule="evenodd" d="M6.32232 2.84743C5.27717 3.5794 4.33207 4.44483 3.51164 5.41903C6.8643 5.10728 11.1237 5.61634 16.0689 8.0929C21.3497 10.7374 25.602 10.8268 28.5614 10.2551C28.2929 9.44078 27.9548 8.65814 27.5544 7.91414C24.1666 8.27202 19.8236 7.79831 14.7621 5.26361C11.548 3.654 8.71486 2.99094 6.32232 2.84743ZM25.5754 5.09288C22.9001 2.09899 19.0122 0.214844 14.685 0.214844C13.4142 0.214844 12.1812 0.377361 11.0058 0.682756C12.5977 1.11783 14.2889 1.75435 16.0689 2.64577C19.7746 4.50157 22.974 5.0991 25.5754 5.09288ZM29.1941 13.1134C25.6189 13.8206 20.6818 13.6753 14.7621 10.7107C9.22784 7.93917 4.82304 7.97407 1.85228 8.63531C1.69894 8.66941 1.54921 8.70526 1.40309 8.74258C1.01414 9.58983 0.703676 10.4808 0.480911 11.4059C0.718836 11.3423 0.964695 11.2818 1.21836 11.2253C4.82241 10.4231 9.91462 10.4579 16.0689 13.54C21.6032 16.3116 26.008 16.2767 28.9788 15.6154C29.0806 15.5928 29.1809 15.5694 29.2795 15.5453C29.2903 15.3146 29.2957 15.0824 29.2957 14.849C29.2957 14.2618 29.2613 13.6826 29.1941 13.1134ZM28.8025 18.6336C25.2619 19.2536 20.4686 19.0156 14.7621 16.1578C9.22784 13.3863 4.82304 13.4212 1.85228 14.0824C1.19286 14.2291 0.599651 14.4079 0.0763592 14.5966C0.0749325 14.6805 0.0742188 14.7647 0.0742188 14.849C0.0742188 22.9312 6.61568 29.4831 14.685 29.4831C21.4476 29.4831 27.1372 24.8813 28.8025 18.6336Z" fill="#4C76F6"/>
</g>
<defs>
<clipPath id="clip0_2004_330">
<rect width="122" height="30" fill="white"/>
</clipPath>
</defs>
</svg>
